<svg width="555" height="532" viewBox="0 0 555 532" fill="none" xmlns="http://www.w3.org/2000/svg">
<g clip-path="url(#clip0_56_252)">
<path d="M475.952 199.094C447.066 85.436 347.256 3.39091 230.101 0.100156C168.164 -1.63958 102.99 18.915 55.5377 90.843C-29.2877 219.422 60.7504 308.274 123.523 350.495C153.849 370.934 181.175 395.51 204.709 423.511C247.11 473.858 328.679 536.421 425.824 438.394C496.235 367.344 495.193 274.801 475.952 199.094Z" fill="#F2F2F2"/>
<path d="M554.357 452.205C554.357 480.104 432.688 532 279.429 532C126.17 532 0 483.321 0 455.422C0 427.523 126.17 430.969 279.429 430.969C432.688 430.969 554.357 424.306 554.357 452.205Z" fill="#3F3D56"/>
<path opacity="0.1" d="M554.357 452.205C554.357 480.104 432.688 532 279.429 532C126.17 532 0 483.321 0 455.422C0 427.523 126.17 430.969 279.429 430.969C432.688 430.969 554.357 424.306 554.357 452.205Z" fill="black"/>
<path d="M277.5 505.616C430.759 505.616 555 482.999 555 455.1C555 427.201 430.759 404.585 277.5 404.585C124.241 404.585 0 427.201 0 455.1C0 482.999 124.241 505.616 277.5 505.616Z" fill="#3F3D56"/>
<path d="M382.557 283.298V418.4L405.141 455.228L406.86 458.029H495.971L497.771 283.298H382.557Z" fill="#2F2E41"/>
<path opacity="0.1" d="M382.557 283.298V418.4L405.141 455.228L406.527 283.298H382.557Z" fill="black"/>
<path d="M167.431 279.695V414.796L144.847 451.625L143.128 454.426H54.017L52.2169 279.695H167.431Z" fill="#2F2E41"/>
<path opacity="0.1" d="M167.431 279.695V414.796L144.847 451.625L143.461 279.695H167.431Z" fill="black"/>
<path d="M524.774 276.993V285.099H40.5156V273.391L85.5208 249.973H485.169L524.774 276.993Z" fill="#2F2E41"/>
<path opacity="0.1" d="M524.774 276.993V285.099H40.5156V273.391L524.774 276.993Z" fill="black"/>
<path opacity="0.1" d="M109.824 317.524H88.2212L79.2203 311.219H119.725L109.824 317.524Z" fill="black"/>
<path opacity="0.1" d="M109.824 343.643H88.2212L79.2203 337.338H119.725L109.824 343.643Z" fill="black"/>
<path opacity="0.1" d="M109.824 380.571H88.2212L79.2203 374.266H119.725L109.824 380.571Z" fill="black"/>
<path opacity="0.1" d="M109.824 417.499H88.2212L79.2203 411.194H119.725L109.824 417.499Z" fill="black"/>
<path opacity="0.1" d="M440.164 321.126H461.767L470.767 314.822H430.263L440.164 321.126Z" fill="black"/>
<path opacity="0.1" d="M440.164 347.246H461.767L470.767 340.941H430.263L440.164 347.246Z" fill="black"/>
<path opacity="0.1" d="M440.164 384.174H461.767L470.767 377.869H430.263L440.164 384.174Z" fill="black"/>
<path opacity="0.1" d="M440.164 421.102H461.767L470.767 414.796H430.263L440.164 421.102Z" fill="black"/>
<path d="M342.464 227.434L339.461 246.616C339.461 246.616 324.68 254.473 335.073 254.704C345.466 254.935 394.429 254.704 394.429 254.704C394.429 254.704 403.898 254.704 388.886 246.384L385.884 226.279L342.464 227.434Z" fill="#3F3D56"/>
<path opacity="0.1" d="M332.982 254.496C335.001 252.863 337.17 251.426 339.461 250.205L342.464 231.023L385.884 231.064L388.886 249.974C391.353 251.248 393.679 252.779 395.824 254.542C397.752 254.102 399.859 252.466 388.886 246.384L385.884 226.279L342.464 227.434L339.461 246.616C339.461 246.616 327.041 253.219 332.982 254.496Z" fill="black"/>
<path d="M454.875 93.7415H273.011C269.212 93.7415 266.133 96.8227 266.133 100.624V223.209C266.133 227.01 269.212 230.092 273.011 230.092H454.875C458.673 230.092 461.753 227.01 461.753 223.209V100.624C461.753 96.8227 458.673 93.7415 454.875 93.7415Z" fill="#3F3D56"/>
<path d="M455.17 101.021H272.715V203.168H455.17V101.021Z" fill="#F2F2F2"/>
<path d="M363.943 98.9412C364.58 98.9412 365.097 98.4239 365.097 97.7857C365.097 97.1476 364.58 96.6302 363.943 96.6302C363.305 96.6302 362.788 97.1476 362.788 97.7857C362.788 98.4239 363.305 98.9412 363.943 98.9412Z" fill="#F2F2F2"/>
<path d="M461.753 211.257V223.209C461.753 224.113 461.575 225.008 461.229 225.843C460.884 226.678 460.377 227.437 459.738 228.076C459.1 228.715 458.342 229.222 457.507 229.568C456.672 229.914 455.778 230.092 454.875 230.092H273.011C272.107 230.092 271.213 229.914 270.378 229.568C269.544 229.222 268.786 228.715 268.147 228.076C267.508 227.437 267.002 226.678 266.656 225.843C266.31 225.008 266.133 224.113 266.133 223.209V211.257H461.753Z" fill="#3F3D56"/>
<path d="M363.943 225.123C366.366 225.123 368.331 223.157 368.331 220.732C368.331 218.307 366.366 216.341 363.943 216.341C361.519 216.341 359.554 218.307 359.554 220.732C359.554 223.157 361.519 225.123 363.943 225.123Z" fill="#F2F2F2"/>
<path d="M357.104 267.183V269.495H232.85V267.646L233.021 267.183L236.083 258.864H354.564L357.104 267.183Z" fill="#3F3D56"/>
<path d="M404.922 264.921C404.695 265.889 403.841 266.911 401.91 267.877C394.981 271.343 380.893 266.953 380.893 266.953C380.893 266.953 370.038 265.104 370.038 260.251C370.343 260.042 370.661 259.853 370.99 259.684C373.903 258.142 383.561 254.337 400.687 259.845C401.949 260.242 403.076 260.981 403.942 261.98C404.326 262.358 404.615 262.821 404.786 263.333C404.956 263.844 405.002 264.388 404.922 264.921Z" fill="#3F3D56"/>
<path opacity="0.1" d="M404.922 264.921C396.441 268.173 388.882 268.415 381.124 263.024C377.212 260.306 373.657 259.633 370.99 259.684C373.903 258.142 383.561 254.337 400.687 259.845C401.949 260.242 403.076 260.981 403.942 261.98C404.326 262.358 404.615 262.821 404.785 263.333C404.956 263.844 405.002 264.388 404.922 264.921Z" fill="black"/>
<path d="M394.288 263.024C395.947 263.024 397.291 262.61 397.291 262.099C397.291 261.589 395.947 261.175 394.288 261.175C392.63 261.175 391.286 261.589 391.286 262.099C391.286 262.61 392.63 263.024 394.288 263.024Z" fill="#F2F2F2"/>
<path opacity="0.1" d="M357.104 267.183V269.495H232.85V267.646L233.021 267.183H357.104Z" fill="black"/>
<path d="M428.111 149.263C427.131 148.282 414.55 132.423 412.426 129.808C410.138 127.192 409.158 127.682 407.687 127.846C406.217 128.009 390.368 130.789 388.571 130.952C386.774 131.279 385.63 131.933 386.774 133.568C387.754 135.039 398.211 149.754 400.498 153.187L358.834 163.16L325.829 107.736C324.522 105.774 324.195 105.12 321.254 105.284C318.313 105.447 295.275 107.409 293.641 107.409C292.007 107.573 290.21 108.226 291.844 112.15C293.478 116.074 319.62 172.316 320.274 173.951C320.927 175.586 322.888 178.202 327.3 177.221C331.875 176.076 347.56 171.989 356.22 169.7C360.795 177.875 369.944 194.551 371.742 197.003C374.029 200.273 375.663 199.619 379.094 198.638C381.872 197.821 421.902 183.433 423.7 182.616C425.497 181.798 426.641 181.308 425.334 179.509C424.353 178.202 413.896 163.978 408.341 156.62C412.099 155.639 425.66 152.043 427.131 151.552C428.765 151.062 429.092 150.244 428.111 149.263V149.263ZM352.462 164.795C351.971 164.959 328.607 170.517 327.463 170.844C326.156 171.171 326.156 171.008 326.156 170.517C325.829 170.027 298.38 113.131 297.889 112.477C297.563 111.823 297.563 111.169 297.889 111.169C298.216 111.169 319.947 109.207 320.601 109.207C321.418 109.207 321.254 109.371 321.581 109.861C321.581 109.861 352.135 162.67 352.625 163.487C353.279 164.305 352.952 164.632 352.462 164.795V164.795ZM418.144 177.057C418.471 177.711 418.961 178.038 417.654 178.365C416.51 178.856 378.277 191.771 377.46 192.098C376.643 192.425 376.153 192.589 375.173 191.118C374.192 189.646 361.775 168.228 361.775 168.228L402.459 157.601C403.439 157.274 403.766 157.111 404.42 158.092C405.073 159.236 417.818 176.567 418.144 177.057V177.057ZM420.759 148.282C419.778 148.446 404.91 152.206 404.91 152.206L392.656 135.53C392.329 135.039 392.002 134.549 392.819 134.385C393.636 134.222 407.524 131.77 408.178 131.606C408.831 131.443 409.321 131.279 410.138 132.424C410.955 133.404 421.412 146.811 421.902 147.301C422.393 147.792 421.739 148.119 420.759 148.282V148.282Z" fill="#FB503B"/>
<path d="M253.795 124.932C267.379 124.932 278.391 113.913 278.391 100.32C278.391 86.727 267.379 75.7077 253.795 75.7077C240.21 75.7077 229.198 86.727 229.198 100.32C229.198 113.913 240.21 124.932 253.795 124.932Z" fill="#FFB9B9"/>
<path d="M235.671 112.626V151.487H275.802C275.802 151.487 270.624 119.103 273.213 109.388L235.671 112.626Z" fill="#FFB9B9"/>
<path d="M315.286 165.089C315.286 165.089 277.097 146.306 277.097 145.01C277.097 143.715 273.213 135.295 270.624 135.295C268.035 135.295 246.027 128.171 233.729 138.534L232.434 146.953L185.183 178.043L198.128 225.324C198.128 225.324 206.543 234.391 203.954 240.868C201.365 247.345 205.896 280.377 205.896 280.377L307.519 277.139V233.096C307.519 233.096 310.755 222.733 312.697 219.495C314.639 216.256 312.697 206.541 312.697 206.541L328.232 187.11C328.232 187.11 326.29 168.975 315.286 165.089Z" fill="#D0CDE1"/>
<path opacity="0.1" d="M186.801 193.911L189.714 178.043C189.714 178.043 172.885 251.231 174.826 259.651C176.768 268.071 191.008 281.025 192.95 281.673C194.892 282.32 213.016 225.972 213.016 225.972L186.801 193.911Z" fill="black"/>
<path d="M196.187 176.099L185.183 178.043C185.183 178.043 168.354 251.231 170.295 259.651C172.237 268.071 186.477 281.025 188.419 281.673C190.361 282.32 208.485 225.972 208.485 225.972L196.187 176.099Z" fill="#D0CDE1"/>
<path opacity="0.1" d="M318.846 197.797L324.348 187.11C324.348 187.11 332.115 260.299 326.937 267.424C321.759 274.548 301.275 277.214 301.275 277.214L301.046 224.028L318.846 197.797Z" fill="black"/>
<path d="M319.817 178.69L328.232 187.11C328.232 187.11 335.999 260.299 330.821 267.424C325.643 274.548 305.159 277.214 305.159 277.214L304.93 224.028L319.817 178.69Z" fill="#D0CDE1"/>
<path d="M194.245 290.093C194.245 290.093 175.474 282.968 172.237 296.57C169.001 310.171 180.005 371.054 180.005 371.054C180.005 371.054 187.125 417.04 191.656 418.335C196.187 419.63 216.252 420.278 219.489 414.449C222.725 408.62 209.779 349.032 209.779 349.032L284.864 347.737C284.864 347.737 280.333 399.552 277.744 404.086C275.155 408.62 275.155 424.164 277.744 424.164C280.333 424.164 308.813 422.869 310.755 418.983C312.697 415.097 323.701 327.659 323.701 327.659C323.701 327.659 332.763 297.217 322.406 299.16C312.05 301.103 194.245 290.093 194.245 290.093Z" fill="#3F3D56"/>
<path d="M304.93 416.392C304.93 416.392 311.402 411.858 314.639 416.392C317.875 420.926 319.17 426.107 304.93 433.88C290.689 441.652 279.686 439.709 279.686 438.413V419.63L304.93 416.392Z" fill="#2F2E41"/>
<path d="M192.95 414.449C192.95 414.449 186.477 409.915 183.241 414.449C180.005 418.983 178.71 424.164 192.95 431.937C207.19 439.709 218.194 437.766 218.194 436.47V417.687L192.95 414.449Z" fill="#2F2E41"/>
<path d="M253.954 69.2864C251.504 69.2012 249.058 69.55 246.73 70.3167C244.924 71.043 243.199 71.9562 241.583 73.0414L230.724 79.7984C229.802 80.1976 229.019 80.8611 228.473 81.7052C227.928 82.5492 227.645 83.536 227.659 84.5411L226.302 94.7097C225.959 97.2759 225.644 100.02 226.792 102.34C227.75 104.277 229.577 105.602 231.08 107.154C233.484 109.648 235.103 112.795 235.734 116.202C236.511 120.448 236.013 125.561 239.371 128.27C241.189 129.737 243.667 130.015 245.999 130.151C252.374 130.523 258.771 130.277 265.099 129.415C266.105 129.34 267.086 129.065 267.985 128.606C269.127 127.931 269.845 126.738 270.517 125.594C272.942 121.463 275.441 117.068 275.415 112.277C275.402 109.907 274.796 107.361 275.933 105.282C276.534 104.398 277.187 103.551 277.887 102.743C279.295 100.763 279.569 98.2195 279.798 95.8001C280.531 88.0724 279.765 82.1917 274.073 76.7481C268.76 71.6667 261.2 69.3331 253.954 69.2864Z" fill="#2F2E41"/>
<path d="M193.534 366.61L171.932 476.493H182.733L203.435 368.412L193.534 366.61Z" fill="#2F2E41"/>
<path d="M262.842 375.618L276.344 501.712H285.345L277.244 372.015L262.842 375.618Z" fill="#2F2E41"/>
<path d="M299.747 372.015L318.649 455.778H327.65L309.648 370.213L299.747 372.015Z" fill="#2F2E41"/>
<path d="M227.738 372.015L225.038 438.665H232.239L237.64 372.015H227.738Z" fill="#2F2E41"/>
<path d="M178.232 354.902C178.232 354.902 163.831 258.529 204.335 255.827C244.84 253.125 302.447 255.827 302.447 255.827C302.447 255.827 335.751 253.125 325.85 354.902C325.85 354.902 334.851 384.624 253.841 381.922C172.832 379.22 178.232 354.902 178.232 354.902Z" fill="#6C63FF"/>
<path d="M547.283 394.257C547.283 411.062 537.298 416.93 524.982 416.93C512.666 416.93 502.682 411.062 502.682 394.257C502.682 377.451 524.982 356.072 524.982 356.072C524.982 356.072 547.283 377.451 547.283 394.257Z" fill="#6C63FF"/>
<path d="M524.398 400.295L533.903 382.895L524.434 398.088L524.537 391.765L531.087 379.176L524.564 390.091L524.748 378.717L531.763 368.695L524.777 376.928L524.893 356.072L524.199 382.499L517.095 371.619L524.113 384.729L523.449 397.432L523.429 397.095L515.207 385.6L523.404 398.286L523.321 399.875L523.306 399.899L523.313 400.029L521.627 416.981H523.879L524.15 415.611L532.327 402.955L524.17 414.36L524.398 400.295Z" fill="#3F3D56"/>
<path d="M539.225 453.385H512.638L505.767 414.526H544.602L539.225 453.385Z" fill="#2F2E41"/>
<path d="M148.557 190.673H93.2503V255.556H148.557V190.673Z" fill="#3F3D56"/>
<path d="M139.975 200.741H101.832V245.488H139.975V200.741Z" fill="#F2F2F2"/>
<path d="M124.727 210.244L120.853 216.957L116.98 210.244H104.082L120.853 239.312L137.625 210.244H124.727Z" fill="#4DBA87"/>
<path d="M124.727 210.244L120.853 216.957L116.98 210.244H110.79L120.853 227.684L130.916 210.244H124.727Z" fill="#435466"/>
</g>
<defs>
<clipPath id="clip0_56_252">
<rect width="555" height="532" fill="white"/>
</clipPath>
</defs>
</svg>
