<svg width="64" height="84" viewBox="0 0 64 84" fill="none" xmlns="http://www.w3.org/2000/svg">
<path d="M56.76 45.76L43.8 39.28C48.96 35.28 52.28 29.04 52.28 22C52.28 9.88 42.4 0 30.28 0C18.16 0 8.28 9.88 8.28 22C8.28 30.52 13.16 37.92 20.28 41.56V54.6C11.68 52.76 12.2 52.84 11.24 52.84C9.12 52.84 7.12 53.68 5.6 55.2L0 60.88L20.36 81.24C22.08 83 24.48 84 26.96 84H52.16C56.08 84 59.4 81.2 60.04 77.32L63.24 58.48C64.12 53.28 61.52 48.16 56.76 45.76ZM55.36 57.16L52.16 76H26.96C26.6 76 26.28 75.84 26 75.6L11.28 60.88L28.28 64.44V22C28.28 20.88 29.16 20 30.28 20C31.4 20 32.28 20.88 32.28 22V46H39.32L53.16 52.92C54.76 53.72 55.64 55.44 55.36 57.16ZM16.28 22C16.28 14.28 22.56 8 30.28 8C38 8 44.28 14.28 44.28 22C44.28 25.8 42.76 29.24 40.28 31.76V22C40.28 16.48 35.8 12 30.28 12C24.76 12 20.28 16.48 20.28 22V31.76C17.8 29.24 16.28 25.8 16.28 22Z" fill="#3F3D56"/>
</svg>
